<svg width="25" height="25" viewBox="0 0 25 25" fill="none" xmlns="http://www.w3.org/2000/svg">
    <g id="bi:calendar-week" clip-path="url(#clip0_3223_475)">
        <g id="Group">
            <path id="Vector"
                d="M17.1875 10.1562C17.1875 9.94905 17.2698 9.75034 17.4163 9.60382C17.5628 9.45731 17.7615 9.375 17.9688 9.375H19.5312C19.7385 9.375 19.9372 9.45731 20.0837 9.60382C20.2302 9.75034 20.3125 9.94905 20.3125 10.1562V11.7188C20.3125 11.926 20.2302 12.1247 20.0837 12.2712C19.9372 12.4177 19.7385 12.5 19.5312 12.5H17.9688C17.7615 12.5 17.5628 12.4177 17.4163 12.2712C17.2698 12.1247 17.1875 11.926 17.1875 11.7188V10.1562ZM12.5 10.1562C12.5 9.94905 12.5823 9.75034 12.7288 9.60382C12.8753 9.45731 13.074 9.375 13.2812 9.375H14.8438C15.051 9.375 15.2497 9.45731 15.3962 9.60382C15.5427 9.75034 15.625 9.94905 15.625 10.1562V11.7188C15.625 11.926 15.5427 12.1247 15.3962 12.2712C15.2497 12.4177 15.051 12.5 14.8438 12.5H13.2812C13.074 12.5 12.8753 12.4177 12.7288 12.2712C12.5823 12.1247 12.5 11.926 12.5 11.7188V10.1562ZM4.6875 14.8438C4.6875 14.6365 4.76981 14.4378 4.91632 14.2913C5.06284 14.1448 5.26155 14.0625 5.46875 14.0625H7.03125C7.23845 14.0625 7.43716 14.1448 7.58368 14.2913C7.73019 14.4378 7.8125 14.6365 7.8125 14.8438V16.4062C7.8125 16.6135 7.73019 16.8122 7.58368 16.9587C7.43716 17.1052 7.23845 17.1875 7.03125 17.1875H5.46875C5.26155 17.1875 5.06284 17.1052 4.91632 16.9587C4.76981 16.8122 4.6875 16.6135 4.6875 16.4062V14.8438ZM9.375 14.8438C9.375 14.6365 9.45731 14.4378 9.60382 14.2913C9.75034 14.1448 9.94905 14.0625 10.1562 14.0625H11.7188C11.926 14.0625 12.1247 14.1448 12.2712 14.2913C12.4177 14.4378 12.5 14.6365 12.5 14.8438V16.4062C12.5 16.6135 12.4177 16.8122 12.2712 16.9587C12.1247 17.1052 11.926 17.1875 11.7188 17.1875H10.1562C9.94905 17.1875 9.75034 17.1052 9.60382 16.9587C9.45731 16.8122 9.375 16.6135 9.375 16.4062V14.8438Z"
                fill="currentColor" />
            <path id="Vector_2"
                d="M5.46875 0C5.67595 0 5.87466 0.08231 6.02118 0.228823C6.16769 0.375336 6.25 0.57405 6.25 0.78125V1.5625H18.75V0.78125C18.75 0.57405 18.8323 0.375336 18.9788 0.228823C19.1253 0.08231 19.324 0 19.5312 0C19.7385 0 19.9372 0.08231 20.0837 0.228823C20.2302 0.375336 20.3125 0.57405 20.3125 0.78125V1.5625H21.875C22.7038 1.5625 23.4987 1.89174 24.0847 2.47779C24.6708 3.06384 25 3.8587 25 4.6875V21.875C25 22.7038 24.6708 23.4987 24.0847 24.0847C23.4987 24.6708 22.7038 25 21.875 25H3.125C2.2962 25 1.50134 24.6708 0.915291 24.0847C0.32924 23.4987 0 22.7038 0 21.875V4.6875C0 3.8587 0.32924 3.06384 0.915291 2.47779C1.50134 1.89174 2.2962 1.5625 3.125 1.5625H4.6875V0.78125C4.6875 0.57405 4.76981 0.375336 4.91632 0.228823C5.06284 0.08231 5.26155 0 5.46875 0ZM1.5625 6.25V21.875C1.5625 22.2894 1.72712 22.6868 2.02015 22.9799C2.31317 23.2729 2.7106 23.4375 3.125 23.4375H21.875C22.2894 23.4375 22.6868 23.2729 22.9799 22.9799C23.2729 22.6868 23.4375 22.2894 23.4375 21.875V6.25H1.5625Z"
                fill="currentColor" />
        </g>
    </g>
    <defs>
        <clipPath id="clip0_3223_475">
            <rect width="25" height="25" fill="white" />
        </clipPath>
    </defs>
</svg>