<svg width="68" height="68" viewBox="0 0 68 68" fill="none" xmlns="http://www.w3.org/2000/svg">
<g id="Group 146">
<path id="Vector" d="M26.8031 55.188C27.7784 54.4946 28.0044 53.145 27.3077 52.1742C26.611 51.2031 25.2556 50.9784 24.2803 51.6718L26.8031 55.188ZM16.1931 60.0778H14.0229C14.0229 60.887 14.4772 61.6285 15.2001 61.999C15.9229 62.3692 16.793 62.3064 17.4545 61.836L16.1931 60.0778ZM16.1931 46.7819H18.3633C18.3633 45.5887 17.3917 44.6214 16.1931 44.6214V46.7819ZM63.6595 20.051C63.6595 21.2442 64.6312 22.2115 65.8298 22.2115C67.0283 22.2115 68 21.2442 68 20.051H63.6595ZM24.2803 51.6718L14.9317 58.3197L17.4545 61.836L26.8031 55.188L24.2803 51.6718ZM18.3633 60.0778V46.7819H14.0229V60.0778H18.3633ZM16.1931 44.6214H6.8445V48.9425H16.1931V44.6214ZM6.8445 44.6214C6.14714 44.6214 5.49836 44.3578 5.03599 43.9193L2.04259 47.0484C3.33339 48.2725 5.06247 48.9425 6.8445 48.9425V44.6214ZM5.03599 43.9193C4.57718 43.4843 4.34042 42.9174 4.34042 42.3502H0C0 44.1334 0.748173 45.8212 2.04259 47.0484L5.03599 43.9193ZM4.34042 42.3502V6.89448H0V42.3502H4.34042ZM4.34042 6.89448C4.34042 6.32703 4.57718 5.76018 5.03599 5.32519L2.04259 2.19608C0.748176 3.42337 0 5.11109 0 6.89448H4.34042ZM5.03599 5.32519C5.49836 4.88677 6.14714 4.62312 6.8445 4.62312V0.301971C5.06247 0.301971 3.33339 0.972193 2.04259 2.19608L5.03599 5.32519ZM6.8445 4.62312H61.1554V0.301971H6.8445V4.62312ZM61.1554 4.62312C61.8528 4.62312 62.5015 4.88677 62.9639 5.32519L65.9574 2.19608C64.6665 0.972196 62.9376 0.301971 61.1554 0.301971V4.62312ZM62.9639 5.32519C63.4228 5.76018 63.6595 6.32706 63.6595 6.89448H68C68 5.11109 67.2517 3.42337 65.9574 2.19608L62.9639 5.32519ZM63.6595 6.89448V20.051H68V6.89448H63.6595Z" fill="#EE9F2E"/>
<path id="Vector_2" d="M17.6336 28.496C16.5743 27.9379 15.261 28.3404 14.7004 29.3951C14.1397 30.4498 14.544 31.7571 15.6034 32.3154L17.6336 28.496ZM24.8899 35.6173C26.0647 35.8538 27.2095 35.097 27.4469 33.9274C27.6842 32.7578 26.9242 31.6182 25.7494 31.382L24.8899 35.6173ZM15.6034 32.3154C18.5237 33.854 21.6513 34.9659 24.8899 35.6173L25.7494 31.382C22.9191 30.8125 20.1858 29.8408 17.6336 28.496L15.6034 32.3154Z" fill="#EE9F2E"/>
<path id="Vector_3" d="M24.5958 13.9856C24.5958 12.7924 23.6241 11.825 22.4256 11.825C21.227 11.825 20.2554 12.7924 20.2554 13.9856H24.5958ZM20.2554 18.3068C20.2554 19.5 21.227 20.4673 22.4256 20.4673C23.6241 20.4673 24.5958 19.5 24.5958 18.3068H20.2554ZM20.2554 13.9856V18.3068H24.5958V13.9856H20.2554Z" fill="#EE9F2E"/>
<path id="Vector_4" d="M47.7447 13.9856C47.7447 12.7924 46.773 11.825 45.5745 11.825C44.376 11.825 43.4043 12.7924 43.4043 13.9856H47.7447ZM43.4043 18.3068C43.4043 19.5 44.376 20.4673 45.5745 20.4673C46.773 20.4673 47.7447 19.5 47.7447 18.3068H43.4043ZM43.4043 13.9856V18.3068H47.7447V13.9856H43.4043Z" fill="#EE9F2E"/>
<path id="Vector_5" d="M58.5957 58.1573V55.9967C57.3972 55.9967 56.4255 56.9641 56.4255 58.1573H58.5957ZM58.5957 65.8394L57.3382 67.6002C57.9999 68.0689 58.8692 68.1302 59.5908 67.7595C60.3125 67.3887 60.7659 66.6481 60.7659 65.8394H58.5957ZM47.7447 58.1573L49.0022 56.3966C48.635 56.1364 48.1955 55.9967 47.7447 55.9967V58.1573ZM62.9361 55.9967H58.5957V60.3179H62.9361V55.9967ZM56.4255 58.1573V65.8394H60.7659V58.1573H56.4255ZM59.8533 64.0787L49.0022 56.3966L46.4871 59.918L57.3382 67.6002L59.8533 64.0787ZM47.7447 55.9967H39.7872V60.3179H47.7447V55.9967ZM39.0638 55.2765V39.9126H34.7234V55.2765H39.0638ZM39.7872 39.1924H62.9361V34.8712H39.7872V39.1924ZM63.6595 39.9126V55.2765H68V39.9126H63.6595ZM62.9361 39.1924C63.3358 39.1924 63.6595 39.5147 63.6595 39.9126H68C68 37.1283 65.7328 34.8712 62.9361 34.8712V39.1924ZM39.7872 55.9967C39.3876 55.9967 39.0638 55.6744 39.0638 55.2765H34.7234C34.7234 58.0608 36.9905 60.3179 39.7872 60.3179V55.9967ZM39.0638 39.9126C39.0638 39.5147 39.3876 39.1924 39.7872 39.1924V34.8712C36.9905 34.8712 34.7234 37.1283 34.7234 39.9126H39.0638ZM62.9361 60.3179C65.7328 60.3179 68 58.0608 68 55.2765H63.6595C63.6595 55.6744 63.3358 55.9967 62.9361 55.9967V60.3179Z" fill="#EE9F2E"/>
</g>
</svg>
