<svg width="24" height="18" viewBox="0 0 24 18" fill="none" xmlns="http://www.w3.org/2000/svg">
    <g id="Group">
        <path id="Vector"
            d="M13.284 7.69204C14.0129 6.67356 14.4049 5.4525 14.4049 4.20005C14.4049 2.9476 14.0129 1.72654 13.284 0.708061C13.9662 0.242409 14.774 -0.00453615 15.6 6.30946e-05C16.7139 6.30946e-05 17.7822 0.44256 18.5699 1.23021C19.3575 2.01786 19.8 3.08614 19.8 4.20005C19.8 5.31395 19.3575 6.38224 18.5699 7.16989C17.7822 7.95754 16.7139 8.40003 15.6 8.40003C14.774 8.40463 13.9662 8.15769 13.284 7.69204ZM4.2 4.20005C4.2 3.36937 4.44633 2.55735 4.90783 1.86666C5.36933 1.17598 6.02528 0.637655 6.79273 0.319768C7.56018 0.00188119 8.40466 -0.0812925 9.21938 0.0807648C10.0341 0.242822 10.7825 0.642832 11.3698 1.23021C11.9572 1.81759 12.3572 2.56595 12.5193 3.38067C12.6814 4.19539 12.5982 5.03987 12.2803 5.80731C11.9624 6.57476 11.4241 7.23071 10.7334 7.69221C10.0427 8.15371 9.23068 8.40003 8.4 8.40003C7.28609 8.40003 6.2178 7.95754 5.43015 7.16989C4.6425 6.38224 4.2 5.31395 4.2 4.20005ZM6.6 4.20005C6.6 4.55605 6.70557 4.90406 6.90336 5.20007C7.10114 5.49608 7.38226 5.72679 7.71117 5.86303C8.04008 5.99926 8.402 6.03491 8.75116 5.96546C9.10033 5.896 9.42106 5.72457 9.67279 5.47284C9.92453 5.2211 10.096 4.90037 10.1654 4.55121C10.2349 4.20204 10.1992 3.84013 10.063 3.51122C9.92675 3.18231 9.69603 2.90119 9.40003 2.70341C9.10402 2.50562 8.75601 2.40005 8.4 2.40005C7.92261 2.40005 7.46477 2.5897 7.12721 2.92726C6.78964 3.26482 6.6 3.72266 6.6 4.20005ZM16.8 15.6V18H0V15.6C0 15.6 0 10.8 8.4 10.8C16.8 10.8 16.8 15.6 16.8 15.6ZM14.4 15.6C14.232 14.664 12.804 13.2 8.4 13.2C3.996 13.2 2.484 14.772 2.4 15.6M16.74 10.8C17.4755 11.3721 18.0768 12.0982 18.5018 12.9275C18.9268 13.7567 19.1651 14.6689 19.2 15.6V18H24V15.6C24 15.6 24 11.244 16.728 10.8H16.74Z"
            fill="currentColor" />
    </g>
</svg>