<svg width="25" height="25" viewBox="0 0 25 25" fill="none" xmlns="http://www.w3.org/2000/svg">
    <path id="Vector"
        d="M12.5 10.4167C12.7763 10.4167 13.0412 10.5264 13.2366 10.7218C13.4319 10.9171 13.5417 11.1821 13.5417 11.4583V17.7083C13.5417 17.9846 13.4319 18.2496 13.2366 18.4449C13.0412 18.6403 12.7763 18.75 12.5 18.75C12.2237 18.75 11.9588 18.6403 11.7634 18.4449C11.5681 18.2496 11.4583 17.9846 11.4583 17.7083V11.4583C11.4583 11.1821 11.5681 10.9171 11.7634 10.7218C11.9588 10.5264 12.2237 10.4167 12.5 10.4167ZM12.5 8.85417C12.7052 8.85417 12.9084 8.81375 13.0979 8.73523C13.2875 8.6567 13.4598 8.54161 13.6049 8.39652C13.7499 8.25143 13.865 8.07918 13.9436 7.88961C14.0221 7.70004 14.0625 7.49686 14.0625 7.29167C14.0625 7.08648 14.0221 6.88329 13.9436 6.69372C13.865 6.50415 13.7499 6.3319 13.6049 6.18681C13.4598 6.04172 13.2875 5.92663 13.0979 5.8481C12.9084 5.76958 12.7052 5.72917 12.5 5.72917C12.0862 5.72917 11.6893 5.89357 11.3966 6.1862C11.104 6.47884 10.9396 6.87573 10.9396 7.28958C10.9396 7.70343 11.104 8.10033 11.3966 8.39296C11.6893 8.6856 12.0862 8.85 12.5 8.85V8.85417ZM0 12.5C-2.44606e-08 10.8585 0.323322 9.23303 0.951506 7.71646C1.57969 6.19989 2.50043 4.8219 3.66116 3.66117C4.8219 2.50043 6.19989 1.57969 7.71646 0.951506C9.23303 0.323322 10.8585 0 12.5 0C14.1415 0 15.767 0.323322 17.2835 0.951506C18.8001 1.57969 20.1781 2.50043 21.3388 3.66117C22.4996 4.8219 23.4203 6.19989 24.0485 7.71646C24.6767 9.23303 25 10.8585 25 12.5C25 15.8152 23.683 18.9946 21.3388 21.3388C18.9946 23.683 15.8152 25 12.5 25C9.18479 25 6.00537 23.683 3.66116 21.3388C1.31696 18.9946 4.94004e-08 15.8152 0 12.5ZM12.5 2.08333C9.73733 2.08333 7.08781 3.1808 5.1343 5.1343C3.1808 7.08781 2.08333 9.73733 2.08333 12.5C2.08333 15.2627 3.1808 17.9122 5.1343 19.8657C7.08781 21.8192 9.73733 22.9167 12.5 22.9167C15.2627 22.9167 17.9122 21.8192 19.8657 19.8657C21.8192 17.9122 22.9167 15.2627 22.9167 12.5C22.9167 9.73733 21.8192 7.08781 19.8657 5.1343C17.9122 3.1808 15.2627 2.08333 12.5 2.08333Z"
        fill="currentColor" />
</svg>