<svg width="24" height="24" viewBox="0 0 24 24" fill="none" xmlns="http://www.w3.org/2000/svg">
    <g id="Group 45">
        <path id="Vector"
            d="M14.3333 0C13.7811 0 13.3333 0.447715 13.3333 1V9.66667C13.3333 10.219 13.781 10.6667 14.3333 10.6667H23C23.5523 10.6667 24 10.219 24 9.66667V1C24 0.447717 23.5523 0 23 0H14.3333ZM0 23C0 23.5523 0.447715 24 1 24H9.66667C10.219 24 10.6667 23.5523 10.6667 23V14.3333C10.6667 13.7811 10.219 13.3333 9.66667 13.3333H1C0.447717 13.3333 0 13.781 0 14.3333V23ZM1 0C0.447717 0 0 0.447715 0 1V9.66667C0 10.219 0.447715 10.6667 1 10.6667H9.66667C10.219 10.6667 10.6667 10.219 10.6667 9.66667V1C10.6667 0.447717 10.219 0 9.66667 0H1ZM13.3333 18.3333C13.3333 17.781 13.781 17.3333 14.3333 17.3333H16.3333C16.8856 17.3333 17.3333 16.8856 17.3333 16.3333V14.3333C17.3333 13.781 17.781 13.3333 18.3333 13.3333H19C19.5523 13.3333 20 13.781 20 14.3333V16.3333C20 16.8856 20.4477 17.3333 21 17.3333H23C23.5523 17.3333 24 17.781 24 18.3333V19C24 19.5523 23.5523 20 23 20H21C20.4477 20 20 20.4477 20 21V23C20 23.5523 19.5523 24 19 24H18.3333C17.781 24 17.3333 23.5523 17.3333 23V21C17.3333 20.4477 16.8856 20 16.3333 20H14.3333C13.781 20 13.3333 19.5523 13.3333 19V18.3333Z"
            fill="currentColor" />
    </g>
</svg>