<svg width="24" height="22" viewBox="0 0 24 22" fill="none" xmlns="http://www.w3.org/2000/svg">
    <path id="Vector"
        d="M21.6 2.44444V19.5556H2.4V2.44444H21.6ZM21.6 0H2.4C1.068 0 0 1.08778 0 2.44444V19.5556C0 20.9122 1.068 22 2.4 22H21.6C22.932 22 24 20.9122 24 19.5556V2.44444C24 1.08778 22.932 0 21.6 0ZM19.2 14.6667H4.8V17.1111H19.2V14.6667ZM9.6 4.88889H4.8V12.2222H9.6V4.88889ZM12 7.33333H19.2V4.88889H12V7.33333ZM19.2 9.77778H12V12.2222H19.2V9.77778Z"
        fill="currentColor" />
</svg>