<svg width="24" height="24" viewBox="0 0 24 24" fill="none" xmlns="http://www.w3.org/2000/svg">
    <g id="mdi:settings">
        <path id="Vector"
            d="M12.973 15.85C11.9519 15.85 10.9727 15.4444 10.2507 14.7224C9.52864 14.0003 9.12302 13.0211 9.12302 12C9.12302 10.9789 9.52864 9.99966 10.2507 9.27764C10.9727 8.55563 11.9519 8.15 12.973 8.15C13.9941 8.15 14.9734 8.55563 15.6954 9.27764C16.4174 9.99966 16.823 10.9789 16.823 12C16.823 13.0211 16.4174 14.0003 15.6954 14.7224C14.9734 15.4444 13.9941 15.85 12.973 15.85ZM21.146 13.067C21.19 12.715 21.223 12.363 21.223 12C21.223 11.637 21.19 11.274 21.146 10.9L23.467 9.107C23.676 8.942 23.731 8.645 23.599 8.403L21.399 4.597C21.267 4.355 20.97 4.256 20.728 4.355L17.989 5.455C17.417 5.026 16.823 4.652 16.13 4.377L15.723 1.462C15.7007 1.33244 15.6332 1.21497 15.5325 1.13041C15.4318 1.04585 15.3045 0.999648 15.173 1H10.773C10.498 1 10.267 1.198 10.223 1.462L9.81602 4.377C9.12302 4.652 8.52902 5.026 7.95702 5.455L5.21802 4.355C4.97602 4.256 4.67902 4.355 4.54702 4.597L2.34702 8.403C2.20402 8.645 2.27002 8.942 2.47902 9.107L4.80002 10.9C4.75602 11.274 4.72302 11.637 4.72302 12C4.72302 12.363 4.75602 12.715 4.80002 13.067L2.47902 14.893C2.27002 15.058 2.20402 15.355 2.34702 15.597L4.54702 19.403C4.67902 19.645 4.97602 19.733 5.21802 19.645L7.95702 18.534C8.52902 18.974 9.12302 19.348 9.81602 19.623L10.223 22.538C10.267 22.802 10.498 23 10.773 23H15.173C15.448 23 15.679 22.802 15.723 22.538L16.13 19.623C16.823 19.337 17.417 18.974 17.989 18.534L20.728 19.645C20.97 19.733 21.267 19.645 21.399 19.403L23.599 15.597C23.731 15.355 23.676 15.058 23.467 14.893L21.146 13.067Z"
            fill="currentColor" />
    </g>
</svg>