<svg width="24" height="24" viewBox="0 0 24 24" fill="none" xmlns="http://www.w3.org/2000/svg">
    <g id="thumbs-up">
        <path id="Vector"
            d="M7.33341 21.3334H4.53341C4.03834 21.3334 3.56355 21.1367 3.21348 20.7867C2.86341 20.4366 2.66675 19.9618 2.66675 19.4667V12.9334C2.66675 12.4383 2.86341 11.9636 3.21348 11.6135C3.56355 11.2634 4.03834 11.0667 4.53341 11.0667H7.33341M13.8667 9.20008V5.46675C13.8667 4.72414 13.5717 4.01195 13.0466 3.48685C12.5215 2.96175 11.8094 2.66675 11.0667 2.66675L7.33341 11.0667V21.3334H17.8614C18.3116 21.3385 18.7484 21.1807 19.0915 20.8892C19.4345 20.5976 19.6606 20.1919 19.7281 19.7467L21.0161 11.3467C21.0567 11.0792 21.0386 10.8061 20.9632 10.5462C20.8878 10.2863 20.7567 10.046 20.5791 9.84176C20.4016 9.63757 20.1818 9.47442 19.9349 9.36362C19.688 9.25282 19.42 9.19702 19.1494 9.20008H13.8667Z"
            stroke="currentColor" stroke-width="2" stroke-linecap="round" stroke-linejoin="round" />
    </g>
</svg>