<svg width="19" height="19" viewBox="0 0 19 19" fill="none" xmlns="http://www.w3.org/2000/svg">
    <path id="Vector"
        d="M17.7542 14.4398L12.7823 9.46796L17.7542 4.49612C18.3643 3.88603 18.3643 2.89649 17.7542 2.28641L16.6493 1.18155C16.0392 0.571466 15.0497 0.571466 14.4396 1.18155L9.46777 6.1534L4.49593 1.18155C3.88584 0.571466 2.89631 0.571466 2.28622 1.18155L1.18137 2.28641C0.571279 2.89649 0.571279 3.88603 1.18137 4.49612L6.15321 9.46796L1.18137 14.4398C0.571279 15.0499 0.571279 16.0394 1.18137 16.6495L2.28622 17.7544C2.89631 18.3645 3.88584 18.3645 4.49593 17.7544L9.46777 12.7825L14.4396 17.7544C15.0497 18.3645 16.0392 18.3645 16.6493 17.7544L17.7542 16.6495C18.3643 16.0394 18.3643 15.0499 17.7542 14.4398Z"
        fill="currentColor" />
</svg>